<?xml version="1.0" encoding="UTF-8" standalone="no"?>
<!-- Created with Inkscape (http://www.inkscape.org/) -->

<svg
   version="1.1"
   id="svg2708"
   width="776.57751"
   height="706.8222"
   viewBox="0 0 776.57751 706.8222"
   sodipodi:docname="SeaLion4a.svg"
   inkscape:version="1.2.2 (732a01da63, 2022-12-09, custom)"
   xmlns:inkscape="http://www.inkscape.org/namespaces/inkscape"
   xmlns:sodipodi="http://sodipodi.sourceforge.net/DTD/sodipodi-0.dtd"
   xmlns="http://www.w3.org/2000/svg"
   xmlns:svg="http://www.w3.org/2000/svg">
  <defs
     id="defs2712" />
  <sodipodi:namedview
     id="namedview2710"
     pagecolor="#ffffff"
     bordercolor="#000000"
     borderopacity="0.25"
     inkscape:showpageshadow="2"
     inkscape:pageopacity="0.0"
     inkscape:pagecheckerboard="0"
     inkscape:deskcolor="#d1d1d1"
     showgrid="false"
     inkscape:zoom="0.9983453"
     inkscape:cx="283.46906"
     inkscape:cy="299.49558"
     inkscape:window-width="1920"
     inkscape:window-height="1031"
     inkscape:window-x="0"
     inkscape:window-y="25"
     inkscape:window-maximized="1"
     inkscape:current-layer="layer1" />
  <g
     inkscape:groupmode="layer"
     id="layer1"
     inkscape:label="Layer 1"
     transform="translate(142.62841,168.89266)">
    <path
       style="fill:#000000;stroke-width:1.01356"
       d="m 206.46662,536.0579 c -3.49409,-2.82324 -13.01551,-7.62055 -15.12479,-7.62055 -1.36298,0 -17.3674,-7.0624 -24.49222,-10.80789 -13.50597,-7.10003 -23.05846,-11.56729 -27.87293,-13.0349 -4.664,-1.42174 -42.93534,-20.36066 -54.9767,-27.20573 C 77.45475,473.66812 64.91194,466.95242 56.127052,462.46507 39.115791,453.77566 25.999276,445.2741 4.5375399,429.02697 -7.1014838,420.21592 -13.367968,413.95842 -17.539685,406.98145 c -2.382829,-3.9852 -3.556465,-14.02867 -3.590168,-30.72323 -0.04008,-19.88254 0.250442,-19.11269 -7.213934,-19.11269 -3.794858,0 -5.380607,1.35489 -2.704396,2.31067 0.696823,0.24895 0.939986,0.80388 0.540369,1.23338 -0.399617,0.42947 -5.416754,-0.40803 -11.149163,-1.86109 -5.732435,-1.45309 -14.752747,-3.33424 -20.045147,-4.1803 -13.116464,-2.09694 -52.603306,-3.8899 -67.077416,-3.04579 l -11.83205,0.69002 -1.08519,-3.9082 c -1.79061,-6.44868 -1.92458,-6.34014 8.21688,-6.65745 l 9.31339,-0.2914 0.79188,-3.04068 c 0.81286,-3.12123 1.64555,-3.66523 15.07801,-9.85051 8.14956,-3.75268 11.695915,-7.18863 15.281923,-14.80611 1.751252,-3.72008 4.00245,-7.67598 5.002655,-8.79089 2.873495,-3.20307 10.221398,-20.7839 9.558954,-22.87107 -0.324663,-1.02294 0.119886,-3.23326 0.987917,-4.91181 1.223724,-2.36645 1.513915,-5.73578 1.291936,-15.00067 -0.269322,-11.24207 -0.514005,-12.48828 -4.1369,-21.07083 -7.337584,-17.38251 -11.032773,-34.44666 -13.278764,-61.32044 -3.892714,-46.5772 -3.895743,-94.138087 -0.007,-112.738566 2.19361,-10.492875 11.982351,-40.82747 14.479258,-44.870168 0.344298,-0.557451 0.764539,-1.925765 0.933845,-3.04068 0.169328,-1.114915 1.142425,-2.711281 2.16246,-3.547464 1.020039,-0.836183 3.371693,-3.80085 5.225902,-6.5881437 4.866526,-7.3155169 18.781658,-20.5706683 28.280963,-26.9396693 5.63808,-3.780154 8.374878,-6.284827 8.772209,-8.028187 1.224828,-5.374129 2.760633,-8.079655 6.606118,-11.63764 2.192409,-2.028499 3.803544,-4.002713 3.580261,-4.387147 -0.223269,-0.384434 -1.563412,-3.251882 -2.978108,-6.372097 -3.057473,-6.743535 -9.732785,-15.92494 -13.723043,-18.875072 -3.082267,-2.278766 -10.177169,-15.896912 -12.425315,-23.849344 -0.748555,-2.647928 -1.717554,-4.814414 -2.153318,-4.814414 -0.435751,0 -0.792283,-0.684154 -0.792283,-1.520342 0,-0.836187 -0.404124,-1.520341 -0.898071,-1.520341 -0.493934,0 -1.707554,-1.710385 -2.69692,-3.800855 -0.989365,-2.09047 -2.751724,-5.09227 -3.916334,-6.67066 -1.911968,-2.59126 -2.112151,-4.21449 -2.062404,-16.72376 0.03035,-7.61967 0.440074,-18.55403 0.910619,-24.29857 0.748581,-9.14049 1.217076,-10.94393 3.751997,-14.44327 l 2.896576,-3.99863 7.341968,0.008 c 4.038073,0.004 10.762738,0.89268 14.943666,1.97408 14.632151,3.78458 26.8766903,7.2446 28.8864964,8.16263 7.7997142,3.56272 22.3492686,9.11304 23.8888456,9.11304 1.02387,0 2.90927,0.40474 4.189784,0.89942 1.280514,0.49468 4.836756,1.4439 7.902782,2.10938 6.442359,1.3983 14.377924,3.77016 18.750875,5.60445 1.672366,0.7015 5.32119,2.0766 8.108484,3.05578 13.803681,4.84927 25.995307,11.02363 34.461071,17.45257 11.978145,9.09624 25.710615,24.877715 30.888585,35.497383 1.78384,3.658594 4.30827,8.338887 5.6098,10.40065 1.30155,2.061764 3.59777,7.34858 5.10272,11.74849 1.50495,4.399909 3.16905,8.541633 3.69798,9.203834 0.85085,1.065274 5.01962,18.027738 7.9243,32.243519 0.56953,2.787294 1.46675,10.31298 1.99383,16.7237512 0.52706,6.4107711 1.65981,14.3007944 2.51721,17.5333788 0.85742,3.232585 1.55889,6.561365 1.55889,7.397286 0,0.83592 0.91221,3.407894 2.02713,5.715511 1.11491,2.307604 2.02712,4.954264 2.02712,5.881439 0,0.927188 1.1673,3.881133 2.59396,6.564321 5.09001,9.57298 10.54141,20.296234 11.58559,22.789541 1.09003,2.602773 8.34925,14.137376 15.97391,25.381933 2.36921,3.493999 4.30764,7.040793 4.30764,7.881772 0,0.840966 2.79499,7.861171 6.21111,15.600431 6.75104,15.29466 8.34363,17.16653 17.46074,20.52269 2.70653,0.99632 6.35534,3.06273 8.10849,4.59202 3.16687,2.76251 16.47432,9.13315 19.078,9.13315 0.74845,0 5.9172,1.61269 11.48605,3.58376 5.56886,1.97108 15.14235,4.90325 21.27439,6.51595 6.13205,1.61271 13.65774,3.63993 16.72377,4.50494 3.06602,0.86501 9.6795,2.68803 14.69662,4.05114 9.45875,2.56986 29.65183,8.91524 50.67805,15.92484 12.58352,4.19504 38.57952,14.61704 40.78133,16.3496 0.68885,0.54207 4.56572,1.8527 8.61527,2.9126 7.47378,1.95607 8.87781,2.54608 28.64761,12.03862 21.46899,10.30846 31.78191,15.083 37.15343,17.20083 2.97886,1.17446 10.57195,4.74034 16.87352,7.92409 10.52171,5.31596 12.19035,6.5751 20.43199,15.41753 4.93602,5.29585 10.72665,11.73269 12.86805,14.30404 2.14142,2.57137 8.59066,9.15828 14.33162,14.63759 6.98056,6.66242 11.98986,12.49996 15.12272,17.62313 2.57653,4.21344 5.91833,9.02909 7.42626,10.70147 2.69439,2.98823 4.35635,5.73723 7.59071,12.55561 1.86511,3.93189 4.29178,16.15534 5.55604,27.98682 0.47656,4.45968 1.83882,11.52927 3.02721,15.7102 1.1884,4.18094 2.54123,9.19806 3.00623,11.14918 1.69052,7.09311 6.17306,21.83648 7.17673,23.60459 0.56602,0.9972 2.85648,5.43703 5.08989,9.86632 4.22247,8.37399 7.81889,12.05622 16.98585,17.39109 8.23672,4.79354 16.44443,8.52982 20.64839,9.39949 1.50657,0.31167 3.98089,1.63472 5.49855,2.94012 l 2.75932,2.37347 -2.2223,3.59579 c -2.98266,4.82605 -6.48694,6.94477 -11.61133,7.02028 -4.20088,0.062 -15.65729,4.65257 -19.15091,7.67389 -0.94397,0.81636 -1.98183,2.69126 -2.30633,4.16646 -1.25228,5.69264 -11.89981,9.68199 -19.31204,7.23572 -3.02551,-0.99851 -4.61094,-0.98464 -7.95905,0.0696 -2.29952,0.72411 -4.63705,1.62981 -5.1945,2.01269 -1.29616,0.89022 -8.48924,1.79802 -24.6365,3.10925 -36.93112,2.99891 -51.94443,4.95679 -64.35293,8.39213 -3.23258,0.89497 -8.10601,1.62721 -10.8298,1.62721 -2.72382,0 -6.23023,0.48584 -7.79207,1.07966 -1.56183,0.59379 -7.6349,1.22483 -13.49566,1.40229 -5.86078,0.17737 -17.72556,1.08977 -26.36617,2.02735 -8.6406,0.93761 -17.37731,1.44835 -19.41492,1.13499 -7.81921,-1.20242 -15.30264,-8.74329 -10.23174,-10.31026 6.56401,-2.02834 6.64177,-4.33072 0.30027,-8.88668 -2.81563,-2.02281 -5.49489,-3.67786 -5.95388,-3.67786 -0.45898,0 -1.85754,-1.08894 -3.1079,-2.41984 -1.25032,-1.33094 -4.95314,-3.17178 -8.22853,-4.09083 -5.89338,-1.65359 -5.96198,-1.71611 -6.60801,-6.02413 -0.57341,-3.82379 -1.08444,-4.50925 -4.20215,-5.63663 -10.27507,-3.71549 -18.25367,-11.88489 -16.84994,-17.25278 0.46148,-1.7647 0.12417,-1.92047 -3.0449,-1.40618 -2.10105,0.34093 -5.36874,-0.0653 -7.96115,-0.98978 -2.41851,-0.86249 -5.69935,-1.84849 -7.29076,-2.19116 -2.16535,-0.46627 -2.77218,-1.08695 -2.41139,-2.46654 0.4244,-1.62296 -0.42993,-1.9206 -7.14168,-2.48794 -4.19303,-0.35443 -10.86167,-0.64662 -14.81914,-0.64931 -13.39232,-0.009 -79.72288,-7.99197 -83.58636,-10.05963 -1.01622,-0.54387 -5.90886,-1.49006 -10.87249,-2.10266 -10.63866,-1.31294 -13.65527,-1.9581 -15.33484,-3.27957 -0.68319,-0.53753 -5.92837,-1.81127 -11.65594,-2.83043 -5.72758,-1.0192 -20.44803,-3.97142 -32.71212,-6.56044 -12.26409,-2.58901 -25.263,-5.106 -28.88648,-5.59329 -3.62349,-0.4873 -9.01883,-1.41094 -11.98967,-2.05253 -5.05837,-1.09243 -5.55739,-1.02008 -7.855094,1.13848 -1.349459,1.26778 -2.453586,3.11581 -2.453586,4.10676 0,2.2839 6.39623,6.68253 16.46045,11.31967 4.31483,1.98807 11.79184,6.26903 16.61556,9.51319 4.82376,3.24419 10.33741,6.8353 12.2526,7.98022 1.91515,1.14494 7.67546,5.07049 12.80064,8.72348 5.12519,3.65298 10.79052,7.40299 12.58962,8.33335 1.79911,0.93035 3.27109,2.11818 3.27109,2.63963 0,0.52144 2.03757,3.44969 4.52792,6.50716 2.49035,3.05746 4.81188,6.69048 5.15896,8.07332 0.63908,2.54626 2.95694,5.12403 6.41515,7.13452 4.59748,2.67283 13.07551,9.75138 15.52389,12.96143 2.87126,3.76436 6.18276,12.79138 7.37667,20.10844 0.4058,2.48702 1.8659,6.79634 3.24466,9.57625 1.63854,3.30367 2.31556,6.01073 1.95464,7.81544 -0.38138,1.90692 0.39222,4.55644 2.50084,8.56497 3.51513,6.68238 3.49517,9.49339 -0.0788,11.11934 -5.24841,2.38763 -7.50064,2.36599 -10.55424,-0.10131 z m -2.15669,-12.93364 c -0.52462,-3.10517 -1.81668,-5.35762 -4.65127,-8.10849 -2.15869,-2.09493 -4.50932,-3.80896 -5.2237,-3.80896 -0.71434,0 -4.2486,-2.42932 -7.85393,-5.39848 -11.62617,-9.5747 -25.86193,-19.21142 -42.75409,-28.94189 -9.0784,-5.22946 -19.5139,-11.50087 -23.18993,-13.93646 -3.67609,-2.43558 -7.412,-4.42835 -8.30207,-4.42835 -0.89007,0 -1.90021,-0.4561 -2.24476,-1.01355 -0.34451,-0.55747 -0.0285,-1.01638 0.70037,-1.0198 0.72974,-0.003 -0.0405,-0.71919 -1.71165,-1.59053 -1.67113,-0.87134 -3.7236,-2.15817 -4.56102,-2.85958 -0.83746,-0.70142 -3.51715,-1.84521 -5.95493,-2.54175 -2.962512,-0.84652 -4.095323,-1.60346 -3.416106,-2.28268 1.482366,-1.48235 12.435316,3.45134 36.734906,16.54703 24.93135,13.43615 53.19741,33.01234 72.23374,50.02692 5.10014,4.55846 7.80958,2.24339 4.0002,-3.41797 -0.99563,-1.47971 -2.38944,-3.83064 -3.09731,-5.22428 -0.70791,-1.39364 -1.83174,-3.21805 -2.49738,-4.05424 -2.19215,-2.75369 -16.28926,-14.72314 -23.00185,-19.53024 -3.62352,-2.59485 -7.7966,-5.64424 -9.27358,-6.77642 -1.47698,-1.13218 -3.52944,-2.36559 -4.56102,-2.74095 -1.0316,-0.37536 -3.53762,-1.97499 -5.56893,-3.55475 -2.03132,-1.57977 -3.95554,-2.87228 -4.27605,-2.87228 -0.71677,0 -14.95244,-9.03919 -16.35612,-10.38557 -0.64886,-0.62243 0.61077,-0.70772 3.50082,-0.23724 3.93609,0.64098 7.29218,2.04761 13.22294,5.54218 22.43999,13.22232 30.19101,18.05264 36.48526,22.73709 4.17928,3.11047 7.9713,5.65536 8.42671,5.65536 0.45539,0 -0.18435,-1.80104 -1.4214,-4.00227 -2.39254,-4.25693 -7.46206,-9.58588 -12.77036,-13.42389 -1.77873,-1.28605 -6.35408,-4.90073 -10.16734,-8.0326 -3.81331,-3.13187 -8.9216,-6.70866 -11.35173,-7.94841 -2.43014,-1.23978 -5.35248,-3.12434 -6.49411,-4.18794 -1.14162,-1.06357 -2.43168,-1.93378 -2.86679,-1.93378 -0.43511,0 -4.13026,-2.16648 -8.2115,-4.8144 -4.08122,-2.64794 -11.61677,-7.09493 -16.74567,-9.88223 -9.04018,-4.91288 -11.02054,-6.58815 -7.78802,-6.58815 2.31004,0 28.37712,13.9287 39.32859,21.01486 6.91641,4.47529 9.67335,5.07078 6.31974,1.36505 -2.10109,-2.32167 -27.96998,-19.68197 -36.31419,-24.37 -3.20842,-1.80262 -6.17309,-3.80535 -6.58814,-4.45055 -0.79749,-1.23965 -7.88968,-6.73565 -8.69193,-6.73565 -0.25877,0 -3.47384,-1.82441 -7.14424,-4.05425 -3.67038,-2.22983 -7.07456,-4.05423 -7.56483,-4.05423 -0.49032,0 -4.263732,-2.22345 -8.385387,-4.94093 C 86.197,396.55162 83.908606,393.285 82.732776,385.41157 c -0.722065,-4.83501 0.69321,-10.00287 2.753472,-10.05427 0.710634,-0.019 2.136867,-0.67225 3.169396,-1.45446 1.682195,-1.2744 1.723375,-1.64206 0.39586,-3.53736 -1.306794,-1.86571 -1.632461,-1.93324 -2.761633,-0.57267 -2.43289,2.93144 -3.093264,1.52883 -1.11029,-2.35817 6.442097,-12.62751 6.87045,-33.09359 0.893039,-42.66499 -1.414198,-2.26452 -0.618275,-3.62931 1.616469,-2.77175 4.376591,1.67945 7.893427,13.04961 6.998956,22.6281 -0.512697,5.49059 -0.361104,6.43808 1.030059,6.43808 3.391128,0 4.188418,-3.99865 4.036352,-20.24395 -0.08081,-8.6256 0.05992,-16.01734 0.312624,-16.42613 2.32092,-3.75536 5.28474,8.11968 4.59875,18.42598 -0.46456,6.97982 -3.19015,19.42081 -4.739283,21.63249 -1.226984,1.75179 -1.074248,2.30427 1.345873,4.86839 1.50144,1.59082 3.30153,2.89238 4.00015,2.89238 0.74279,0 1.29986,1.36787 1.34151,3.29408 0.0694,3.20801 1.7426,8.60723 1.88462,6.08136 0.0393,-0.69682 0.95724,-1.26694 2.04008,-1.26694 1.5917,0 2.02857,0.82516 2.28051,4.30763 0.30566,4.22408 0.37844,4.30225 3.753,4.03039 1.91214,-0.15393 4.16408,0.3639 5.0678,1.16557 1.80186,1.59828 14.39396,5.69982 17.49907,5.69982 1.08679,0 3.88937,0.85532 6.22799,1.90075 7.44647,3.32875 30.22312,7.82405 65.0657,12.84162 6.13205,0.88306 13.42968,2.21985 16.21698,2.97066 2.78729,0.75078 7.12026,1.6699 9.62882,2.04248 2.50856,0.37258 9.12205,1.51549 14.69664,2.53986 5.57459,1.02433 14.46859,2.37914 19.76445,3.01068 5.29585,0.63155 12.13738,1.57571 15.20341,2.09811 6.98366,1.18991 32.07632,3.93059 35.47462,3.87459 1.39365,-0.0222 7.34593,0.68883 13.22726,1.58182 9.06342,1.37609 13.91689,1.46947 31.84178,0.61273 22.08028,-1.05541 42.60498,-0.72146 64.90234,1.05597 16.25147,1.29545 33.57773,3.71318 36.03516,5.02837 1.01205,0.54162 3.47266,0.98481 5.46795,0.98481 1.99532,0 4.41985,0.4222 5.38783,0.93823 2.30351,1.22805 10.55165,3.92889 17.13483,5.61075 2.88154,0.73621 5.76431,1.66304 6.40608,2.05969 2.5016,1.54606 14.17436,3.20298 24.01275,3.40851 8.5325,0.17833 10.47528,-0.0637 11.22151,-1.39706 0.58895,-1.05236 2.81409,-1.78042 6.40473,-2.09557 3.02624,-0.26575 8.1394,-1.22867 11.36264,-2.14014 4.61612,-1.30534 6.12249,-1.39425 7.09493,-0.41863 1.9622,1.96862 -2.93213,4.9758 -9.40787,5.78041 -7.52392,0.93481 -10.93404,2.28262 -6.08137,2.40359 1.95111,0.0487 5.23825,0.48118 7.3048,0.96123 2.48912,0.57824 5.91015,0.41103 10.13562,-0.49534 8.17293,-1.75315 8.91217,-1.74859 8.91217,0.0548 0,2.6569 -5.83906,4.73774 -13.52968,4.82148 -16.86492,0.18371 -41.19827,-2.13022 -48.29754,-4.59266 -2.50856,-0.87011 -6.38543,-1.88342 -8.61526,-2.25176 -2.22985,-0.36834 -9.52748,-1.72664 -16.21698,-3.01841 -29.63466,-5.72273 -53.63845,-7.86945 -86.65947,-7.75017 -14.77265,0.0532 -29.36793,0.53623 -32.43396,1.07304 -9.65505,1.69043 -15.39778,3.46999 -15.96459,4.94707 -0.62667,1.63301 1.4015,3.21166 4.15548,3.23446 3.26689,0.0285 8.92937,3.28822 13.61274,7.83996 4.34394,4.22183 4.45949,4.48463 2.78521,6.33467 -2.5294,2.79498 -1.09981,4.08499 4.52704,4.08499 6.58216,0 9.90899,1.37138 10.31751,4.25303 0.26511,1.86942 1.6007,2.76034 6.69748,4.46737 12.43028,4.16316 13.83673,5.84023 8.83699,10.53726 -1.39365,1.30927 -2.5339,2.95441 -2.5339,3.65585 0,0.70145 -0.91221,1.56487 -2.02712,1.91874 -4.21775,1.33866 -2.0333,2.73028 3.29406,2.09851 2.92667,-0.34704 12.16274,-1.02177 20.52462,-1.4993 8.36188,-0.47762 18.62418,-1.58487 22.80512,-2.46064 4.18094,-0.87576 14.44324,-2.293 22.80513,-3.14943 8.36188,-0.85645 19.08028,-2.23521 23.81868,-3.06393 4.7384,-0.82871 19.10563,-2.41693 31.92717,-3.52937 32.53281,-2.82271 34.46444,-3.00515 43.58313,-4.11713 22.04675,-2.68843 22.61529,-2.93774 25.32895,-11.1077 1.82494,-5.49443 1.15761,-8.32241 -3.35356,-14.21187 -5.45841,-7.12609 -7.38375,-10.43556 -6.86203,-11.79516 1.00982,-2.63155 3.25728,-1.37052 9.83439,5.51798 5.76672,6.03972 7.38263,7.12838 12.86333,8.66621 4.60265,1.29143 7.90742,1.57327 12.43779,1.06072 l 6.16971,-0.69802 -7.72582,-3.40719 c -4.24919,-1.87394 -8.34965,-3.40714 -9.11209,-3.40714 -4.17993,0 -20.31215,-17.01522 -27.58804,-29.09801 -5.33915,-8.86651 -15.03836,-29.66526 -16.45193,-35.27902 -0.69593,-2.76373 -1.62476,-5.48714 -2.06411,-6.052 -1.43263,-1.842 -2.25834,-6.90153 -3.12522,-19.14969 -0.46874,-6.6227 -1.34018,-12.52923 -1.93656,-13.12561 -0.59639,-0.59638 -1.08433,-3.0984 -1.08433,-5.56006 0,-3.05081 -1.36695,-7.58438 -4.29369,-14.24052 l -4.29367,-9.76481 -24.84622,-24.66783 c -25.5575,-25.37402 -31.24418,-30.33265 -42.58349,-37.13177 -3.62348,-2.17264 -7.95646,-4.94786 -9.62884,-6.16711 -2.63839,-1.92352 -15.43887,-7.54361 -17.18163,-7.54361 -0.34037,0 -7.26783,-3.19272 -15.39434,-7.09493 -8.12651,-3.90221 -14.97884,-7.09493 -15.22742,-7.09493 -0.24864,0 -2.36541,-0.86166 -4.70401,-1.91484 -9.19464,-4.14068 -38.8382,-15.08261 -43.27411,-15.97322 -2.8349,-0.56914 -3.82401,-0.96563 -13.17629,-5.2816 -3.62348,-1.67218 -11.60527,-4.71464 -17.73732,-6.76099 -6.13204,-2.04638 -12.51748,-4.3217 -14.18986,-5.05624 -1.67236,-0.73458 -7.37364,-2.5665 -12.6695,-4.07094 -5.29586,-1.50447 -11.90935,-3.61755 -14.69664,-4.69577 -2.78729,-1.07824 -13.0496,-4.29018 -22.80512,-7.13768 -13.35278,-3.89749 -19.13037,-5.12425 -23.37266,-4.96274 -4.0472,0.15425 -7.61773,-0.54152 -12.66954,-2.46831 -3.86877,-1.47555 -8.34205,-2.92745 -9.94054,-3.22639 -2.85387,-0.53369 -2.89755,-0.47245 -2.41715,3.38983 0.26924,2.16334 1.74047,9.29081 3.26975,15.83873 1.52927,6.54795 2.51727,12.59131 2.19556,13.42968 -1.02218,2.66373 -2.42678,1.65011 -3.15461,-2.27652 -1.29596,-6.99164 -7.8075,-26.03351 -10.91776,-31.92718 -4.00378,-7.58679 -6.66825,-8.04568 -3.86398,-0.66546 1.45972,3.84168 2.14327,9.13528 2.67177,20.69049 0.7522,16.44632 0.45142,19.0787 -2.06937,18.11138 -1.21732,-0.46713 -1.55869,-2.32122 -1.55869,-8.46542 0,-11.2139 -2.61053,-24.95796 -5.76179,-30.33521 l -2.6247,-4.47872 -1.48199,2.82846 c -0.86483,1.65057 -1.23812,4.04784 -0.89636,5.75651 0.87498,4.37491 -0.41148,12.01478 -2.02314,12.01478 -1.55949,0 -1.59521,-0.14443 -4.29607,-17.39391 -2.44221,-15.59742 -8.98522,-34.32957 -13.46459,-38.54819 -1.59439,-1.50159 -2.89888,-3.33984 -2.89888,-4.08502 0,-2.78031 -7.40033,-18.536329 -25.36211,-53.998486 L 137.70279,15.068448 136.9028,-1.6553034 c -0.76742,-16.0442066 -1.90306,-24.3647256 -3.84077,-28.1408196 -0.49652,-0.96758 -1.20559,-5.180004 -1.57573,-9.360946 -0.37011,-4.18094 -1.53586,-10.110272 -2.59054,-13.176293 -1.05465,-3.066022 -2.19961,-6.96967 -2.54436,-8.674775 -0.34473,-1.705114 -2.43453,-6.038086 -4.64401,-9.628832 -2.20946,-3.590753 -4.76965,-8.809151 -5.68929,-11.596443 -2.0348,-6.166933 -4.01098,-9.143221 -12.51033,-18.841518 -12.08596,-13.79085 -14.331085,-15.56749 -28.577796,-22.61444 -11.659022,-5.76698 -36.134082,-14.79668 -40.106509,-14.79668 -0.706494,0 -2.076529,-0.41527 -3.044517,-0.92282 -0.967987,-0.50755 -4.9527,-1.45119 -8.854909,-2.09697 -3.902209,-0.64578 -10.436125,-2.51103 -14.5198328,-4.14499 -4.0836944,-1.63396 -8.01375962,-2.97083 -8.73349874,-2.97083 -0.71971286,0 -3.53590106,-0.87625 -6.25816696,-1.94722 -11.2198805,-4.41377 -40.2672205,-13.25597 -43.5477125,-13.25597 -2.201317,0 -3.747791,0.57181 -4.111774,1.52034 -0.320884,0.83618 -1.218758,1.52034 -1.995313,1.52034 -0.776542,0 -1.481788,0.34208 -1.567222,0.76017 -0.625409,3.06082 -0.315352,35.72803 0.339109,35.72803 0.456381,0 0.829771,0.92089 0.829771,2.04643 0,1.68979 0.452412,1.93288 2.595993,1.39488 2.054192,-0.51557 2.706801,-0.22777 3.126968,1.37895 0.306786,1.17321 2.861507,3.20964 6.050823,4.82329 3.944085,1.99553 6.857218,4.55132 10.204683,8.95296 4.131681,5.4328 7.118855,12.444129 5.844674,13.718305 -0.73799,0.738003 -4.617047,-3.181029 -7.248977,-7.323701 -3.770642,-5.934994 -11.915995,-12.703754 -15.394134,-12.792474 -1.09765,-0.0279 -1.27497,1.0885 -0.804175,5.06364 0.581234,4.90762 4.03601,12.370367 10.307987,22.266596 9.565674,15.09316 12.627798,19.197782 22.306027,29.900051 2.520584,2.787293 4.874006,5.979706 5.229816,7.094258 0.355796,1.114554 2.26557,3.509091 4.243932,5.321196 2.9962286,2.744451 4.3965243,3.294742 8.3838522,3.294742 5.7396226,0 7.9933274,0.74503 7.9933274,2.642432 0,1.385566 -4.2680178,1.763962 -14.189856,1.258072 -8.0246396,-0.409157 -10.1859586,-0.114841 -12.1392776,1.652853 -3.765977,3.408157 -2.562855,4.242343 7.108712,4.928852 10.0788701,0.715416 19.2204216,3.211982 19.2204216,5.249105 0,1.026143 -2.5935101,1.188655 -12.0305861,0.753863 -13.3850635,-0.616698 -16.9564815,-0.104066 -17.8004035,2.554879 -0.319715,1.007341 -4.492089,3.702618 -9.443002,6.100005 -7.513545,3.638285 -9.954648,5.4933718 -15.96102,12.1293045 -3.899962,4.3087508 -9.948722,10.5707151 -13.441656,13.9154735 -4.896475,4.688724 -6.348069,6.741851 -6.338835,8.965585 0.006,1.586327 -0.843547,4.094889 -1.889187,5.574588 -2.062923,2.919256 -6.207323,18.04036 -6.207323,22.647776 0,1.566237 -0.419868,2.84771 -0.933023,2.84771 -0.513167,0 -1.223176,1.321011 -1.577799,2.935589 -0.354616,1.614564 -1.528551,3.735401 -2.608744,4.712967 -3.158298,2.858222 -4.104387,7.909535 -5.306581,28.332856 -1.30203,22.119257 -1.255429,49.495637 0.113041,66.405537 2.48592,30.71809 17.172906,89.65391 27.148322,108.94051 4.014947,7.76258 4.977324,9.46045 10.053931,17.73735 1.880538,3.06603 4.559154,7.68165 5.952486,10.25695 2.683201,4.95939 7.895528,10.01427 10.326212,10.01427 0.800994,0 2.341609,0.55286 3.423609,1.22857 2.798949,1.74797 3.574335,0.38648 2.284202,-4.01082 -2.924814,-9.96911 -4.128146,-31.43618 -1.832565,-32.69238 0.509347,-0.27873 1.649595,1.62743 2.533895,4.23592 0.884314,2.60852 1.949916,5.07909 2.368007,5.49015 0.418092,0.41106 0.780195,1.92563 0.804661,3.36574 0.02444,1.44012 0.734469,4.44279 1.577774,6.67262 2.098525,5.54887 7.209453,22.92755 9.052319,30.78062 1.195054,5.09251 1.385291,10.44154 0.901146,25.33906 -0.343208,10.56104 -1.076534,19.44541 -1.663851,20.15808 -2.394221,2.90512 1.969007,30.56817 5.3863618,34.14972 0.5053127,0.52958 0.9187396,1.58083 0.9187396,2.3361 0,4.27532 19.7845216,27.38321 27.2482936,31.82543 2.015916,1.1998 4.121419,2.69838 4.678883,3.33018 2.126591,2.41016 8.017281,5.98565 19.512346,11.84346 6.549434,3.33757 13.048294,7.31117 14.441941,8.83027 1.393647,1.51908 8.007137,5.46189 14.69664,8.76179 6.689503,3.29994 13.647463,7.00701 15.462158,8.238 1.814682,1.23098 6.831806,3.69551 11.149164,5.47673 4.317358,1.78123 10.130258,4.70789 12.917558,6.50369 2.78729,1.79578 6.66417,3.88072 8.61526,4.63321 1.95111,0.75248 8.18182,3.56866 13.84598,6.25821 5.66419,2.68951 10.6174,4.89005 11.00718,4.89005 0.61149,0 11.09095,5.07366 50.52113,24.45995 4.38486,2.15588 8.1878,3.91976 8.45097,3.91976 0.26322,0 0.15173,-1.93479 -0.24799,-4.29953 z M 424.54752,467.2263 c -3.25058,-2.46754 -2.1051,-4.49349 3.47804,-6.15152 2.88846,-0.85779 6.1952,-1.56658 7.34831,-1.57511 3.0218,-0.0222 5.20071,-1.53952 3.6169,-2.51838 -1.96983,-1.21741 1.05758,-2.62737 4.21802,-1.96447 1.48373,0.31104 5.58865,0.0766 9.12205,-0.52132 3.5334,-0.59793 7.9067,-1.33014 9.71844,-1.62711 1.83004,-0.29995 3.29407,-0.10131 3.29407,0.44657 0,0.5426 -2.51486,1.30078 -5.58859,1.68479 -3.07375,0.38405 -6.60854,1.50033 -7.8551,2.48063 -1.24657,0.98027 -5.84223,2.52167 -10.21254,3.4253 -9.50008,1.96428 -11.41574,2.92969 -7.26976,3.66364 1.79146,0.31712 3.16721,1.25732 3.36838,2.30199 0.29234,1.51843 -0.48709,1.76141 -5.56221,1.73369 -3.29274,-0.0191 -6.6865,-0.62751 -7.67601,-1.3787 z m -11.40256,-11.65908 c -3.12225,-0.47213 -4.125,-1.10893 -4.36196,-2.77006 -0.3505,-2.45707 0.0568,-2.60961 15.00434,-5.61918 12.98021,-2.61347 23.49182,-3.97582 25.33903,-3.28407 2.39036,0.89519 -3.81618,3.12399 -10.72958,3.85305 -22.10422,2.33104 -21.66841,2.27234 -22.41326,3.01722 -0.35338,0.35337 1.59996,0.66309 4.3408,0.68824 2.74085,0.0254 6.35167,0.64927 8.02404,1.38696 l 3.04068,1.34123 -4.05424,0.68769 c -6.97137,1.18255 -10.00378,1.33189 -14.18985,0.69892 z m -12.94907,-13.2849 c -3.31403,-2.60681 -2.66892,-4.6042 1.98281,-6.13943 2.65942,-0.87768 3.84149,-0.88163 4.70733,-0.0159 0.86583,0.86584 0.5879,1.30477 -1.10687,1.74795 -4.26351,1.11495 -2.26386,2.3825 3.7585,2.3825 6.07756,0 9.20788,1.55943 4.91571,2.44887 -8.43657,1.74819 -11.61608,1.65365 -14.25748,-0.42409 z m 15.10491,-4.85714 c -1.0204,-1.65107 1.61425,-2.05912 8.02433,-1.24286 4.37764,0.55747 5.02698,0.80526 2.36264,0.90164 -2.02079,0.0732 -5.04418,0.40688 -6.7186,0.74176 -1.67447,0.33491 -3.32521,0.15457 -3.66837,-0.40054 z m 96.21925,-4.73713 c 1.0821,-0.81846 3.79185,-1.4721 6.0217,-1.45254 l 4.05423,0.0355 -4.56102,1.43716 c -6.09029,1.91903 -8.06918,1.91177 -5.51491,-0.019 z m 13.14586,-2.51884 c -0.32847,-0.53142 1.14294,-1.43481 3.26977,-2.0075 2.12687,-0.5727 6.94048,-3.10259 10.69696,-5.62191 7.26341,-4.8713 8.80914,-5.4267 8.80914,-3.16526 0,4.90326 -20.43205,14.58707 -22.77587,10.79467 z M 55.357894,388.78378 c -3.776856,-1.45316 -22.800656,-2.19819 -28.270613,-1.10719 -1.054919,0.21031 -2.102309,-0.13715 -2.327524,-0.77205 -0.646012,-1.82149 9.439521,-3.83506 18.590152,-3.71147 6.483762,0.0874 9.289767,0.6235 13.030187,2.48884 2.621826,1.30746 4.752911,2.82194 4.735711,3.36546 -0.04756,1.50247 -1.319,1.44426 -5.757913,-0.26353 z m 2.027111,-8.36198 c -9.90787,-2.57884 -12.390429,-2.84972 -22.298326,-2.43308 -6.132039,0.25782 -12.289425,0.57672 -13.683072,0.70858 -3.615396,0.34213 -3.837286,-1.51991 -0.394164,-3.30766 2.330322,-1.21001 6.70418,-1.485 21.425536,-1.34719 10.173621,0.0954 18.49749,0.0159 18.49749,-0.17389 0,-0.19099 -3.181182,-1.81332 -7.069292,-3.60549 -6.421454,-2.95982 -8.285712,-5.00908 -4.556854,-5.00908 1.942334,0 12.370483,4.82576 13.148523,6.08463 0.343432,0.55565 1.323705,1.0103 2.178454,1.0103 3.248562,0 6.914205,4.06489 6.928198,7.68277 0.0159,4.18388 0.362472,4.17437 -14.176493,0.39009 z m 49.017365,-30.54599 c -0.22963,-0.74007 -0.178,-8.18207 0.11471,-16.53784 0.45326,-12.93447 0.77649,-15.23889 2.17504,-15.5059 1.0085,-0.19258 1.88361,0.58584 2.26667,2.01601 1.01423,3.7864 0.7401,16.22755 -0.49978,22.68517 -1.19501,6.2238 -3.24976,9.94285 -4.05672,7.34256 z M 72.330314,334.08702 c -2.900426,-3.76284 -6.92176,-8.894 -8.936349,-11.40256 -3.191852,-3.97456 -3.423675,-4.60926 -1.802777,-4.93611 2.061208,-0.41559 14.510648,12.13294 17.203626,17.34055 1.492431,2.88605 1.30385,5.83966 -0.372839,5.83966 -0.450021,0 -3.19126,-3.07869 -6.091661,-6.84154 z m -10.384276,-0.73499 c -1.393647,-0.8059 -3.560131,-2.01265 -4.814418,-2.68165 -1.254288,-0.66902 -2.28051,-1.82733 -2.28051,-2.57404 0,-2.60891 3.919159,-1.3251 8.232049,2.69662 4.316819,4.02535 3.720238,5.36791 -1.137121,2.55907 z M -42.840126,255.6947 c -0.855091,-2.94091 0.682777,-15.79264 2.884554,-24.10578 1.020007,-3.85117 2.500822,-6.41821 5.048672,-8.75197 1.982936,-1.8163 3.605331,-3.83968 3.605331,-4.49641 0,-2.82927 5.4675,-12.07233 7.758561,-13.1162 5.193235,-2.3662 5.537508,-1.28045 1.490697,4.70143 -7.197615,10.63935 -10.368272,18.97832 -11.759213,30.9273 -0.718385,6.17135 -2.557849,7.07263 -2.557849,1.25326 0,-1.88528 -0.397501,-3.67349 -0.883341,-3.97376 -0.917544,-0.56705 -2.785008,6.36124 -4.076257,15.12294 -0.654238,4.43935 -0.841636,4.74184 -1.511155,2.43919 z m 4.443629,-44.68135 c 0,-2.08825 7.864007,-17.34966 11.919898,-23.13254 2.438291,-3.47648 5.046281,-5.95603 6.929394,-6.58814 1.66079,-0.55746 4.359588,-2.07251 5.997384,-3.36679 1.858936,-1.46907 3.122448,-1.91919 3.362851,-1.19797 0.2118119,0.63538 -2.802628,4.21898 -6.698714,7.96351 -7.151678,6.87356 -13.310785,15.36486 -16.850326,23.23095 -1.780663,3.95723 -4.660487,5.86723 -4.660487,3.09098 z M 114.03274,-56.607023 c -0.50748,-0.715381 -1.78988,-2.897062 -2.84974,-4.848166 -1.0599,-1.951106 -3.67781,-5.475714 -5.81756,-7.832452 -3.41035,-3.75615 -3.89053,-4.904074 -3.89053,-9.301205 0,-4.615086 0.25561,-5.143728 3.19643,-6.610794 1.75802,-0.877015 3.74821,-1.594575 4.4226,-1.594575 1.37826,0 5.67275,9.275204 7.51594,16.232886 2.19066,8.269334 0.37277,18.112684 -2.57714,13.954306 z M -12.673681,-79.445898 c -1.722165,-2.647928 -3.712248,-7.322979 -4.422395,-10.388999 -2.134239,-9.214268 -7.252894,-20.510933 -11.35635,-25.062993 -3.99441,-4.43108 -4.784145,-6.36295 -2.595757,-6.34978 2.019345,0.0121 9.404292,8.26786 10.873046,12.15511 0.737215,1.95111 1.913098,4.91577 2.613062,6.58815 1.618519,3.866957 3.990179,11.001007 5.391224,16.216975 0.598933,2.229834 2.2408277,5.288619 3.6486393,6.797301 3.0033105,3.218474 3.2631345,4.858651 0.7696962,4.858651 -1.0202305,0 -3.1364815,-2.070334 -4.9211655,-4.814415 z m 7.9616875,-5.067805 c -0.9665286,-2.090469 -2.6067023,-4.713059 -3.644829,-5.827976 -2.5691095,-2.759144 -7.3419015,-13.309211 -8.1964275,-18.117901 -0.75904,-4.2713 -4.930389,-11.29824 -7.230963,-12.18105 -1.935317,-0.74265 -1.834339,-3.65534 0.126798,-3.65534 0.859493,0 2.388886,0.79818 3.398657,1.77373 2.892359,2.79436 7.197299,10.83039 7.242053,13.51873 0.054,3.24554 4.2961104,12.960133 6.7992064,15.57062 2.1516489,2.243951 6.33638741,9.948588 6.33638741,11.666102 0,2.550196 -3.23117881,0.712872 -4.83081661,-2.746915 z m 8.2489073,-3.663871 c -0.6286154,-0.718437 -1.4841268,-2.411474 -1.9011409,-3.7623 -0.4170009,-1.350826 -2.06013103,-4.403973 -3.651412,-6.784769 -1.5912678,-2.380797 -4.0582954,-6.875837 -5.4822819,-9.988997 -1.4239866,-3.11315 -4.169628,-7.73027 -6.101437,-10.26027 -3.477088,-4.55382 -4.436508,-7.34919 -2.522359,-7.34919 1.658373,0 9.240428,10.29221 11.7313829,15.9247 1.2897385,2.91634 3.66195005,7.25385 5.27157402,9.6389 1.60962398,2.385049 3.52019918,5.818788 4.24573288,7.630528 0.7255338,1.811741 1.9479708,3.294075 2.7165238,3.294075 0.768553,0 1.3973787,0.684152 1.3973787,1.520341 0,1.87542 -4.0967946,1.973806 -5.7039615,0.136989 z m 7.2409232,-9.933816 c -4.3675773,-3.43554 -9.2848924,-11.96374 -10.62764947,-18.43176 -1.05359212,-5.07514 -1.71434723,-6.18904 -4.72506843,-7.9654 -3.8134769,-2.25001 -4.0716847,-4.54574 -0.4518473,-4.01755 3.8849041,0.56686 6.9563832,4.16594 8.2535193,9.67121 1.8004778,7.64155 4.7633838,13.39838 8.6540039,16.81439 3.199197,2.808926 4.587509,6.124235 2.564576,6.124235 -0.482292,0 -2.132662,-0.987807 -3.667534,-2.195125 z m 12.254552,-31.84206 c -1.458702,-3.8013 -0.636421,-7.18378 2.043181,-8.40468 3.247025,-1.47944 6.616013,0.33472 8.929437,4.80839 1.425209,2.75605 1.377039,2.94334 -1.040163,4.04469 -3.747949,1.70769 -9.199524,1.46157 -9.932455,-0.4484 z m -78.659422,-21.55743 c 0,-6.09418 1.827362,-10.28685 4.483496,-10.28685 2.361082,0 7.147211,4.26979 6.520895,5.81741 -0.626986,1.54928 -8.662676,8.37244 -9.860292,8.37244 -0.651689,0 -1.144099,-1.67981 -1.144099,-3.903 z m 20.712013,499.55946 c 1.429952,-0.54369 2.599896,-1.68395 2.599896,-2.53391 0,-0.85 0.40076,-1.54543 0.890594,-1.54543 2.087462,0 3.21072,-6.15475 3.007804,-16.48062 -0.117337,-5.96982 -0.42085,-10.64671 -0.674499,-10.39306 -0.253648,0.2537 -1.652932,-0.37102 -3.109492,-1.38817 -1.456573,-1.01716 -4.016616,-2.17348 -5.688995,-2.56963 -1.67238,-0.39614 -4.579232,-2.40109 -6.459677,-4.45542 -3.918858,-4.28131 -10.264088,-13.76599 -10.264088,-15.34247 0,-0.58425 -0.456105,-1.06223 -1.013556,-1.06223 -0.557464,0 -1.026117,-0.79819 -1.041464,-1.77374 -0.01524,-0.97556 -1.599151,-2.91399 -3.519568,-4.30764 -1.920404,-1.39364 -3.504208,-3.10402 -3.519556,-3.80085 -0.01524,-0.69682 -0.701409,-1.26695 -1.524584,-1.26695 -1.631501,0 -5.598246,7.34452 -5.598246,10.36532 0,1.03183 -1.663567,5.51535 -3.696821,9.96339 -2.797286,6.11947 -4.286939,8.23543 -6.122029,8.69604 -1.410991,0.3541 -3.226612,2.14796 -4.341537,4.28945 -1.93257,3.71197 -8.240882,9.5811 -17.697372,16.46527 -5.09778,3.71112 -7.02502,5.42134 -9.42607,8.36476 -1.09487,1.34218 0.0878,1.58957 9.62883,2.01464 20.739891,0.92389 50.581861,3.37146 52.01067,4.26573 0.789747,0.4943 2.576153,1.05249 3.9698,1.24035 1.393647,0.18782 2.967202,0.76958 3.496784,1.29263 1.245142,1.22977 4.803381,1.2133 8.093176,-0.0373 z"
       id="path3189" />
  </g>
</svg>
