<?xml version="1.0" encoding="UTF-8"?>
<svg xmlns="http://www.w3.org/2000/svg" xmlns:xlink="http://www.w3.org/1999/xlink" width="595.28pt" height="155.89pt" viewBox="0 0 595.28 155.89" version="1.1">
<g id="surface1">
<path style=" stroke:none;fill-rule:nonzero;fill:rgb(0%,56.498718%,39.199829%);fill-opacity:1;" d="M 489.714844 107.59375 C 473.3125 107.574219 460.203125 94.394531 460.1875 77.902344 C 460.167969 61.5 473.375 48.289063 489.796875 48.28125 C 506.117188 48.269531 519.496094 61.597656 519.515625 77.890625 C 519.53125 94.304688 506.183594 107.613281 489.714844 107.59375 M 489.882813 35.546875 C 466.613281 35.527344 447.417969 54.605469 447.394531 77.769531 C 447.371094 101.152344 466.324219 120.261719 489.535156 120.25 C 513.242188 120.242188 532.125 101.488281 532.148438 77.929688 C 532.167969 54.648438 513.136719 35.5625 489.882813 35.546875 "/>
<path style=" stroke:none;fill-rule:nonzero;fill:rgb(0%,56.498718%,39.199829%);fill-opacity:1;" d="M 419.546875 72.667969 C 415.253906 71.09375 410.570313 70.554688 406.039063 69.6875 C 402.25 68.960938 398.578125 68.027344 395.4375 65.660156 C 389.789063 61.40625 389.949219 54.332031 395.867188 50.460938 C 399.992188 47.761719 404.585938 47.535156 409.253906 48.566406 C 412.886719 49.371094 415.882813 51.382813 418.652344 53.832031 C 421.9375 56.742188 426.621094 55.976563 428.835938 52.292969 C 430.542969 49.457031 429.824219 46.148438 426.914063 43.363281 C 422.890625 39.511719 417.988281 37.3125 412.628906 36.300781 C 402.453125 34.375 393.035156 36.074219 385.101563 43.183594 C 377.910156 49.625 375.691406 59.035156 379.414063 67.238281 C 383.132813 75.4375 389.96875 79.460938 398.527344 81.019531 C 403.136719 81.859375 407.820313 82.425781 412.347656 83.589844 C 421.394531 85.914063 424.027344 96.089844 417.476563 102.769531 C 411.632813 108.730469 401.625 109.199219 395.050781 103.765625 C 393.171875 102.210938 391.464844 100.449219 389.625 98.847656 C 387.175781 96.722656 383.828125 96.589844 381.308594 98.441406 C 378.683594 100.367188 377.765625 103.636719 379.265625 106.617188 C 380.011719 108.09375 381.046875 109.511719 382.226563 110.671875 C 388.90625 117.234375 397.003906 120.328125 406.34375 120.226563 C 406.96875 120.226563 407.59375 120.234375 408.222656 120.222656 C 418.960938 120.007813 432.046875 113.054688 434.226563 99.042969 C 436.039063 87.394531 430.511719 76.683594 419.546875 72.667969 "/>
<path style=" stroke:none;fill-rule:nonzero;fill:rgb(0%,56.498718%,39.199829%);fill-opacity:1;" d="M 207.652344 42.105469 C 207.644531 38.878906 205.921875 36.535156 203.082031 35.777344 C 199.074219 34.710938 195.417969 37.722656 195.414063 42.171875 C 195.394531 57.960938 195.421875 73.75 195.390625 89.539063 C 195.371094 99.980469 187.496094 107.996094 177.363281 107.960938 C 167.28125 107.925781 159.484375 99.96875 159.460938 89.628906 C 159.4375 78.039063 159.453125 66.449219 159.449219 54.859375 C 159.445313 50.410156 159.492188 45.960938 159.414063 41.511719 C 159.367188 38.863281 157.925781 37.050781 155.519531 36.039063 C 153.203125 35.0625 151.082031 35.558594 149.230469 37.164063 C 147.429688 38.730469 147.027344 40.835938 147.03125 43.121094 C 147.050781 58.347656 147.019531 73.570313 147.078125 88.796875 C 147.085938 91.097656 147.300781 93.429688 147.710938 95.695313 C 150.542969 111.363281 165.789063 122.351563 181.390625 120.042969 C 196.84375 117.761719 207.636719 105.28125 207.660156 89.660156 C 207.671875 82.140625 207.660156 74.625 207.660156 67.105469 C 207.65625 58.773438 207.667969 50.4375 207.652344 42.105469 "/>
<path style=" stroke:none;fill-rule:nonzero;fill:rgb(0%,56.498718%,39.199829%);fill-opacity:1;" d="M 364.8125 41.933594 C 364.785156 37.570313 360.914063 34.648438 356.902344 35.828125 C 354.15625 36.632813 352.5625 38.996094 352.558594 42.332031 C 352.554688 57.996094 352.566406 73.660156 352.546875 89.324219 C 352.542969 90.632813 352.4375 91.957031 352.210938 93.242188 C 350.152344 104.925781 337.117188 111.488281 326.570313 106.066406 C 320.113281 102.746094 316.683594 97.324219 316.648438 90.03125 C 316.574219 74.242188 316.617188 58.449219 316.636719 42.660156 C 316.640625 40.34375 316.066406 38.308594 314.144531 36.863281 C 312.171875 35.378906 310 35.105469 307.773438 36.195313 C 305.082031 37.507813 304.207031 39.890625 304.207031 42.71875 C 304.21875 58.445313 304.117188 74.175781 304.316406 89.898438 C 304.363281 93.40625 305.015625 97.046875 306.148438 100.367188 C 311.136719 114.980469 327.488281 123.421875 342.378906 119.324219 C 355.566406 115.695313 364.667969 103.957031 364.816406 90.242188 C 364.898438 82.535156 364.832031 74.828125 364.832031 67.121094 C 364.832031 58.726563 364.867188 50.328125 364.8125 41.933594 "/>
<path style=" stroke:none;fill-rule:nonzero;fill:rgb(0%,56.498718%,39.199829%);fill-opacity:1;" d="M 99.789063 65.28125 C 94.832031 60.289063 90.378906 55.800781 85.921875 51.324219 C 81.328125 46.707031 76.71875 42.105469 72.125 37.488281 C 70.492188 35.84375 68.640625 35.054688 66.351563 35.917969 C 64.304688 36.695313 63.175781 38.574219 63.140625 41.15625 C 63.136719 41.40625 63.136719 41.65625 63.136719 41.90625 C 63.136719 65.335938 63.136719 88.765625 63.140625 112.195313 C 63.140625 112.945313 63.117188 113.699219 63.164063 114.449219 C 63.367188 117.714844 65.929688 120.167969 69.183594 120.242188 C 72.949219 120.324219 75.53125 117.605469 75.535156 113.441406 C 75.550781 95.898438 75.546875 59.519531 75.546875 58.5 C 76.085938 58.984375 88.394531 71.230469 94.324219 77.164063 C 97.828125 80.667969 101.183594 80.660156 104.710938 77.125 C 109.042969 72.773438 113.421875 68.472656 117.679688 64.050781 C 118.363281 63.339844 118.851563 62.132813 118.863281 61.136719 C 118.910156 56.75 118.820313 46.070313 118.820313 46.070313 C 118.820313 46.070313 106.21875 58.785156 99.789063 65.28125 "/>
<path style=" stroke:none;fill-rule:nonzero;fill:rgb(0%,56.498718%,39.199829%);fill-opacity:1;" d="M 275.390625 46.160156 C 275.21875 46.082031 275.046875 46.003906 274.875 45.929688 C 268.667969 52.25 262.457031 58.570313 256.171875 64.972656 C 255.441406 64.289063 254.9375 63.839844 254.460938 63.363281 C 245.878906 54.765625 237.296875 46.167969 228.722656 37.566406 C 227.109375 35.949219 225.292969 35.019531 222.980469 35.886719 C 220.894531 36.671875 219.769531 38.410156 219.769531 40.90625 C 219.761719 65.269531 219.757813 89.628906 219.808594 113.992188 C 219.8125 115.125 220.148438 116.378906 220.707031 117.359375 C 222.089844 119.78125 224.851563 120.773438 227.53125 120.0625 C 230.230469 119.34375 232.042969 116.929688 232.046875 113.871094 C 232.066406 96.148438 232.0625 78.425781 232.066406 60.703125 C 232.066406 60.074219 232.066406 59.449219 232.066406 58.824219 C 232.257813 58.75 232.453125 58.675781 232.644531 58.601563 C 233.160156 59.226563 233.625 59.898438 234.195313 60.472656 C 239.9375 66.238281 245.675781 72.007813 251.460938 77.730469 C 254.277344 80.515625 257.816406 80.503906 260.613281 77.742188 C 265.242188 73.160156 269.855469 68.566406 274.398438 63.902344 C 275.011719 63.269531 275.449219 62.1875 275.46875 61.304688 C 275.578125 56.796875 275.53125 52.285156 275.523438 47.777344 C 275.519531 47.238281 275.4375 46.699219 275.390625 46.160156 "/>
<path style=" stroke:none;fill-rule:nonzero;fill:rgb(0%,56.498718%,39.199829%);fill-opacity:1;" d="M 289.796875 37.378906 C 288.03125 35.617188 285.367188 35.03125 283.210938 36.015625 C 280.636719 37.191406 279.304688 39.207031 279.308594 42.09375 C 279.324219 53.988281 279.316406 65.882813 279.316406 77.777344 C 279.316406 89.609375 279.28125 101.441406 279.363281 113.273438 C 279.375 114.707031 279.722656 116.304688 280.425781 117.53125 C 281.785156 119.921875 284.664063 120.789063 287.320313 120.003906 C 289.851563 119.253906 291.617188 116.980469 291.667969 114.0625 C 291.75 109.242188 291.710938 104.421875 291.710938 99.601563 C 291.714844 80.695313 291.707031 61.789063 291.726563 42.882813 C 291.730469 40.796875 291.3125 38.898438 289.796875 37.378906 "/>
<path style=" stroke:none;fill-rule:nonzero;fill:rgb(0%,56.498718%,39.199829%);fill-opacity:1;" d="M 128.992188 35.558594 C 125.621094 35.527344 122.828125 38.269531 122.824219 41.789063 C 122.800781 65.890625 122.796875 89.992188 122.824219 114.09375 C 122.832031 117.957031 125.714844 120.488281 129.5625 120.203125 C 132.8125 119.960938 135.09375 117.367188 135.097656 113.804688 C 135.113281 101.910156 135.105469 90.015625 135.105469 78.121094 C 135.101563 66.039063 135.125 53.957031 135.089844 41.875 C 135.082031 38.304688 132.386719 35.59375 128.992188 35.558594 "/>
<path style=" stroke:none;fill-rule:nonzero;fill:rgb(0%,56.498718%,39.199829%);fill-opacity:1;" d="M 505.105469 75.964844 C 504.359375 76.007813 503.609375 75.972656 502.863281 75.972656 C 498.941406 75.957031 499.460938 76.328125 499.429688 72.628906 C 499.421875 72.003906 499.261719 71.308594 499.484375 70.777344 C 499.707031 70.238281 500.273438 69.535156 500.761719 69.476563 C 502.175781 69.300781 503.625 69.371094 505.054688 69.429688 C 507.089844 69.511719 508.445313 70.851563 508.441406 72.679688 C 508.4375 74.574219 507.15625 75.847656 505.105469 75.964844 M 505.261719 65.734375 C 502.757813 65.660156 500.253906 65.722656 497.746094 65.71875 C 496.585938 65.71875 495.808594 66.121094 495.808594 67.445313 C 495.816406 74.335938 495.8125 81.226563 495.808594 88.113281 C 495.808594 89.316406 496.390625 90.066406 497.597656 90.0625 C 498.800781 90.058594 499.398438 89.289063 499.417969 88.109375 C 499.441406 86.609375 499.433594 85.105469 499.4375 83.601563 C 499.445313 79.480469 499.445313 79.480469 503.535156 79.648438 C 506.679688 79.773438 508.464844 81.59375 508.546875 84.777344 C 508.574219 85.90625 508.527344 87.035156 508.570313 88.160156 C 508.613281 89.328125 509.25 90.242188 510.414063 89.984375 C 511.101563 89.828125 512.082031 88.898438 512.125 88.261719 C 512.371094 84.695313 512.628906 81.054688 509.636719 78.234375 C 509.902344 77.921875 510.09375 77.6875 510.296875 77.460938 C 512.320313 75.160156 512.785156 72.566406 511.515625 69.800781 C 510.3125 67.179688 508.136719 65.820313 505.261719 65.734375 "/>
<path style=" stroke:none;fill-rule:nonzero;fill:rgb(0%,56.498718%,39.199829%);fill-opacity:1;" d="M 484.445313 74.941406 C 486.351563 73.121094 488.246094 71.3125 490.144531 69.503906 C 491.152344 68.546875 491.796875 67.433594 490.617188 66.273438 C 489.480469 65.15625 488.453125 65.914063 487.546875 66.820313 C 484.9375 69.433594 482.324219 72.046875 479.703125 74.648438 C 479.4375 74.910156 479.109375 75.109375 478.597656 75.496094 C 478.597656 72.808594 478.613281 70.433594 478.59375 68.054688 C 478.585938 66.773438 478.0625 65.777344 476.648438 65.800781 C 475.335938 65.816406 474.839844 66.753906 474.839844 67.972656 C 474.832031 74.613281 474.835938 81.253906 474.832031 87.890625 C 474.832031 89.109375 475.277344 90.03125 476.625 90.050781 C 478.050781 90.070313 478.582031 89.136719 478.597656 87.835938 L 478.519531 83.199219 C 478.355469 80.667969 480.125 79.402344 481.921875 77.949219 C 483.703125 81.007813 487.882813 88.113281 488.25 88.769531 C 488.886719 89.910156 489.785156 90.511719 491.019531 89.800781 C 492.3125 89.054688 492.050781 87.949219 491.421875 86.871094 C 489.152344 82.988281 486.882813 79.105469 484.445313 74.941406 "/>
<path style=" stroke:none;fill-rule:nonzero;fill:rgb(0%,56.498718%,39.199829%);fill-opacity:1;" d="M 468.558594 85.183594 C 467.902344 85.183594 467.351563 85.414063 466.902344 85.871094 C 466.453125 86.332031 466.226563 86.878906 466.226563 87.515625 C 466.226563 88.265625 466.460938 88.851563 466.933594 89.269531 C 467.402344 89.683594 467.960938 89.894531 468.605469 89.894531 C 469.234375 89.894531 469.777344 89.683594 470.242188 89.261719 C 470.707031 88.835938 470.9375 88.257813 470.9375 87.515625 C 470.9375 86.867188 470.707031 86.316406 470.242188 85.863281 C 469.777344 85.410156 469.21875 85.183594 468.558594 85.183594 "/>
</g>
</svg>
